<svg xmlns="http://www.w3.org/2000/svg" viewBox="0 0 1280.19 524.19"><defs><style>.cls-1{fill:#fefefe;}.cls-2{fill:#00939a;}.cls-3{fill:#ebb733;}.cls-4{fill:#78797c;}.cls-5{fill:#797a7d;}</style></defs><title>logo</title><g id="Layer_2" data-name="Layer 2"><g id="Layer_1-2" data-name="Layer 1"><path class="cls-1" d="M640.09,524.09q-317.75,0-635.5.1c-3.75,0-4.59-.85-4.59-4.6Q.17,262.1,0,4.59C0,.84.84,0,4.59,0q635.51.15,1271,0c3.75,0,4.6.84,4.6,4.59q-.17,257.51,0,515c0,3.75-.85,4.6-4.6,4.6Q957.85,524,640.09,524.09Zm-45-357c1.18-.14,1.6-1,1.81-2,3.48-4.61,7.1-9.12,10.42-13.85q22.83-32.5,45.49-65.14c1-1.44,3.16-2.7.74-5-14.92-14.06-31.81-24.07-52.67-26.1-17.43-1.7-34.11,1.85-50.45,7.45-26.4,9-50.94,22.16-75.65,34.87C439,115.82,403.1,134.12,365.44,148.62c-19.05-15.9-38-31.94-57.18-47.69C281.82,79.23,254.37,59,223,44.9c-32.68-14.7-66.61-20.52-102.24-14.78C88.78,35.27,60.15,48.57,32.77,65.2c-4.58,2.78-4.18,4.54-1.45,8.43q132.06,187.76,263.9,375.68c12.34,17.57,24.7,35.13,37.23,53,1.16-1.39,2.12-2.48,3-3.63Q464.18,334.75,592.88,170.83c.89-1.14,2.23-2.06,2.24-3.75ZM966.38,443.92c9.67,2,6.88-1.6,6-3.91q-30.18-75-60.47-150c-3.85-9.5-.93-7.5-11.64-7.72-3-.06-6,.24-9-.07-3.91-.42-5.82,1-7.39,4.72-8.61,20.57-17.57,41-26.4,61.46Q838,393.57,818.52,438.73c-2.17,5-2.13,5,3.32,5.23,7.33.25,14.67.36,22,.88,3.41.25,5.05-.72,6.06-4.09,3.27-10.82,6.94-21.53,10.29-32.33.9-2.92,2.14-4.27,5.5-4.25q30.26.25,60.5,0c2.88,0,4.09,1,4.93,3.6,3.46,10.77,7.24,21.44,10.62,32.23.91,2.88,2.17,4,5.23,4C954.59,443.8,962.25,443.92,966.38,443.92Zm187.76-80.32q0,37,0,74c0,2.53-.1,4.41,3.51,4.39q42.48-.19,85,0c3,0,3.64-1.13,3.57-3.82-.15-6-.33-12,0-18,.27-4.19-1.37-4.89-5.11-4.86-19.16.16-38.32,0-57.48.17-4,0-5.05-1.23-5-5.09.24-10.82.27-21.66,0-32.48-.1-4.05,1.22-5,5.06-4.94,16.66.2,33.33-.12,50,.22,4.81.09,5.91-1.5,5.62-5.87a114.39,114.39,0,0,1,0-15.49c.28-4.11-.93-5.38-5.18-5.32-16.66.25-33.32-.07-50,.22-4.55.07-5.67-1.35-5.49-5.66.33-8,.27-16,0-24-.12-3.78.79-5.24,4.89-5.08,8.49.33,17-.45,25.48.23,11.81.95,22.4-.74,30.7-10a1.15,1.15,0,0,1,.41-.28c5.42-2.3,6.65-6.45,6.22-12-.28-3.45-1.11-4.47-4.58-4.45q-41.49.18-83,0c-3.67,0-4.8.88-4.77,4.7C1154.23,314.61,1154.14,339.1,1154.14,363.6Zm-420,37.53c-1.28-2.59-2.07-4-2.74-5.54Q707.1,341.4,682.92,287.18c-1.38-3.12-2.89-4.64-6.6-4.36-6.64.5-13.32.35-20,.52-5.75.15-5.75.18-3.42,5.24q33.3,72.27,66.59,144.56c5.67,12.31,5.63,12.24,19.21,11.92,2.63-.07,3.71-1,4.65-3.37Q774.58,363.93,806,286.25c1.37-3.39.27-3.91-2.8-3.91-6.32,0-12.68.07-19-.49-4.55-.41-6.68.91-8.26,5.4-7.42,21-15.27,41.85-23,62.76C746.88,366.65,740.71,383.29,734.11,401.13Zm285.18-35.48q0,36.24,0,72.47c0,2.48-.59,4.91,3.52,4.89q46.23-.19,92.46,0c3,0,3.62-1.26,3.55-3.89-.13-5.5-.35-11,.06-16.49.34-4.71-1-6.26-6-6.19-19.49.29-39,.12-58.48.12-6.45,0-6.45,0-6.45-6.39,0-38.82,0-77.64.08-116.46,0-3.64-.8-5-4.66-4.79-6.48.33-13,.33-19.49,0-3.81-.19-4.73,1.06-4.71,4.76C1019.37,317.67,1019.29,341.66,1019.29,365.65Z"/><path class="cls-2" d="M595.12,167.08c0,1.69-1.35,2.61-2.24,3.75Q464.19,334.75,335.47,498.64c-.9,1.15-1.86,2.24-3,3.63-12.53-17.83-24.89-35.39-37.23-53Q163.31,261.45,31.32,73.63c-2.73-3.89-3.13-5.65,1.45-8.43,27.38-16.63,56-29.93,87.94-35.08,35.63-5.74,69.56.08,102.24,14.78,31.42,14.14,58.87,34.33,85.31,56,19.18,15.75,38.13,31.79,57.18,47.69,23.33,19.11,47.22,37.37,75,49.74,31.8,14.15,64.06,16.47,96.91,3.75,19.92-7.71,37.39-19.43,53.83-32.87C592.32,168.32,593,166.31,595.12,167.08Z"/><path class="cls-3" d="M595.12,167.08c-2.11-.77-2.8,1.24-3.92,2.16-16.44,13.44-33.91,25.16-53.83,32.87-32.85,12.72-65.11,10.4-96.91-3.75-27.8-12.37-51.69-30.63-75-49.74,37.66-14.5,73.53-32.8,109.34-51.24C499.49,84.67,524,71.55,550.43,62.51c16.34-5.6,33-9.15,50.45-7.45,20.86,2,37.75,12,52.67,26.1,2.42,2.29.26,3.55-.74,5q-22.69,32.61-45.49,65.14c-3.32,4.73-6.94,9.24-10.42,13.85-1.13.19-2.45.22-1.81,2Z"/><path class="cls-4" d="M966.38,443.92c-4.13,0-11.79-.12-19.44.06-3.06.07-4.32-1.09-5.23-4-3.38-10.79-7.16-21.46-10.62-32.23-.84-2.62-2.05-3.62-4.93-3.6q-30.25.21-60.5,0c-3.36,0-4.6,1.33-5.5,4.25-3.35,10.8-7,21.51-10.29,32.33-1,3.37-2.65,4.34-6.06,4.09-7.3-.52-14.64-.63-22-.88-5.45-.19-5.49-.19-3.32-5.23q19.46-45.17,38.93-90.31c8.83-20.47,17.79-40.89,26.4-61.46,1.57-3.76,3.48-5.14,7.39-4.72,3,.31,6,0,9,.07,10.71.22,7.79-1.78,11.64,7.72Q942.26,365,972.34,440C973.26,442.32,976.05,445.92,966.38,443.92ZM898.77,324.17l-1.18.07q-10.53,26-21.07,52.07c-1,2.36,0,2.87,2.17,2.87q17.2-.07,34.41,0c2.37,0,3.4-.42,2.39-3.1-1.36-3.56-2.34-7.26-3.51-10.89Q905.4,344.68,898.77,324.17Z"/><path class="cls-4" d="M1154.14,363.6c0-24.5.09-49-.09-73.48,0-3.82,1.1-4.72,4.77-4.7q41.49.21,83,0c3.47,0,4.3,1,4.58,4.45.43,5.58-.8,9.73-6.22,12a1.15,1.15,0,0,0-.41.28c-8.3,9.27-18.89,11-30.7,10-8.44-.68-17,.1-25.48-.23-4.1-.16-5,1.3-4.89,5.08.26,8,.32,16,0,24-.18,4.31.94,5.73,5.49,5.66,16.66-.29,33.32,0,50-.22,4.25-.06,5.46,1.21,5.18,5.32a114.39,114.39,0,0,0,0,15.49c.29,4.37-.81,6-5.62,5.87-16.65-.34-33.32,0-50-.22-3.84,0-5.16.89-5.06,4.94.29,10.82.26,21.66,0,32.48-.09,3.86.93,5.13,5,5.09,19.16-.21,38.32,0,57.48-.17,3.74,0,5.38.67,5.11,4.86-.38,6-.2,12,0,18,.07,2.69-.58,3.83-3.57,3.82q-42.48-.15-85,0c-3.61,0-3.52-1.86-3.51-4.39Q1154.18,400.58,1154.14,363.6Z"/><path class="cls-4" d="M734.11,401.13c6.6-17.84,12.77-34.48,18.91-51.12,7.71-20.91,15.56-41.76,23-62.76,1.58-4.49,3.71-5.81,8.26-5.4,6.29.56,12.65.49,19,.49,3.07,0,4.17.52,2.8,3.91q-31.46,77.67-62.66,155.44c-.94,2.34-2,3.3-4.65,3.37-13.58.32-13.54.39-19.21-11.92q-33.28-72.28-66.59-144.56c-2.33-5.06-2.33-5.09,3.42-5.24,6.66-.17,13.34,0,20-.52,3.71-.28,5.22,1.24,6.6,4.36Q707,341.44,731.37,395.59C732,397.09,732.83,398.54,734.11,401.13Z"/><path class="cls-5" d="M1019.29,365.65c0-24,.08-48-.08-72,0-3.7.9-4.95,4.71-4.76,6.48.32,13,.32,19.49,0,3.86-.19,4.67,1.15,4.66,4.79-.13,38.82-.08,77.64-.08,116.46,0,6.38,0,6.39,6.45,6.39,19.49,0,39,.17,58.48-.12,4.94-.07,6.3,1.48,6,6.19-.41,5.47-.19,11-.06,16.49.07,2.63-.51,3.9-3.55,3.89q-46.23-.15-92.46,0c-4.11,0-3.52-2.41-3.52-4.89Q1019.31,401.9,1019.29,365.65Z"/><path class="cls-2" d="M595.09,167.14c-.64-1.78.68-1.81,1.81-2C596.69,166.17,596.27,167,595.09,167.14Z"/><path class="cls-1" d="M898.77,324.17q6.62,20.52,13.21,41c1.17,3.63,2.15,7.33,3.51,10.89,1,2.68,0,3.11-2.39,3.1q-17.21-.1-34.41,0c-2.18,0-3.13-.51-2.17-2.87q10.56-26,21.07-52.07Z"/></g></g></svg>